<?xml version="1.0" standalone="no"?>
<!DOCTYPE svg PUBLIC "-//W3C//DTD SVG 20010904//EN"
 "http://www.w3.org/TR/2001/REC-SVG-20010904/DTD/svg10.dtd">
<svg version="1.0" xmlns="http://www.w3.org/2000/svg"
 width="300.000000pt" height="298.000000pt" viewBox="0 0 300.000000 298.000000"
 preserveAspectRatio="xMidYMid meet">
<metadata>
Created by potrace 1.10, written by Peter Selinger 2001-2011
</metadata>
<g transform="translate(0.000000,298.000000) scale(0.100000,-0.100000)"
fill="#000000" stroke="none">
<path d="M2993 2925 c0 -33 2 -45 4 -27 2 18 2 45 0 60 -2 15 -4 0 -4 -33z"/>
<path d="M2995 2225 c0 -314 1 -440 2 -282 2 159 2 415 0 570 -1 155 -2 26 -2
-288z"/>
<path d="M1876 2141 c-3 -5 14 -14 39 -20 58 -14 59 -15 63 -2 2 7 -11 11 -32
11 -19 0 -38 5 -41 10 -8 12 -22 13 -29 1z"/>
<path d="M1990 2109 c0 -5 9 -9 21 -9 11 0 33 -6 47 -14 15 -7 61 -24 102 -36
41 -13 93 -32 114 -43 22 -10 49 -20 60 -22 12 -2 51 -15 89 -29 37 -14 70
-27 75 -27 20 -4 65 -23 99 -41 21 -11 54 -28 73 -38 19 -10 45 -28 57 -39 12
-11 32 -23 46 -26 25 -7 58 -32 74 -57 4 -7 23 -23 41 -36 24 -17 32 -19 32
-8 0 14 -63 67 -67 56 0 -3 -10 6 -21 20 -11 14 -46 43 -78 64 -33 21 -70 47
-84 56 -66 44 -245 116 -337 135 -17 3 -37 13 -44 21 -6 8 -19 14 -29 14 -10
0 -31 7 -46 15 -16 8 -37 15 -47 15 -10 0 -34 7 -55 16 -42 17 -122 26 -122
13z"/>
<path d="M667 1850 c-3 -11 -1 -20 4 -20 5 0 9 5 9 11 0 6 7 9 15 5 9 -3 15 0
15 9 0 23 -37 18 -43 -5z"/>
<path d="M2095 1829 c-6 -19 -8 -19 -24 -5 -20 18 -31 20 -31 6 0 -5 6 -9 13
-7 7 1 11 -7 9 -22 -2 -19 0 -21 11 -12 16 13 28 5 21 -14 -3 -7 2 -15 12 -19
13 -5 15 -2 9 16 -4 13 -6 35 -6 51 2 32 -5 35 -14 6z"/>
<path d="M2139 1819 c-23 -19 -23 -20 -2 -10 31 16 53 13 53 -5 0 -11 6 -15
20 -11 24 6 37 -10 21 -26 -9 -9 -14 -8 -21 3 -6 9 -10 10 -10 3 0 -6 7 -19
16 -28 9 -8 13 -22 10 -31 -3 -9 -2 -12 5 -8 6 3 8 17 5 30 -8 31 12 32 24 2
5 -13 9 -17 9 -9 2 26 -49 101 -63 95 -8 -3 -17 -1 -21 5 -9 16 -20 14 -46
-10z"/>
<path d="M618 1803 c-6 -7 -21 -13 -34 -13 -18 0 -25 -7 -29 -27 -3 -16 -10
-50 -16 -76 -14 -60 1 -83 20 -31 10 29 15 33 27 23 8 -6 14 -18 14 -25 0 -8
4 -14 9 -14 6 0 6 12 0 30 -6 17 -14 30 -19 30 -4 0 -10 9 -13 19 -3 15 -1 18
11 14 10 -4 13 -2 8 6 -8 13 10 41 26 41 6 0 6 -6 -1 -14 -9 -10 -8 -15 3 -19
10 -4 13 -1 10 8 -4 10 0 12 15 8 16 -4 21 -1 21 16 0 11 5 21 10 21 6 0 10
-4 10 -10 0 -5 4 -10 10 -10 5 0 7 6 4 14 -7 19 -72 26 -86 9z"/>
<path d="M763 1808 c1 -8 -6 -12 -19 -10 -13 2 -21 -3 -21 -12 0 -9 8 -14 21
-13 29 3 35 -39 7 -48 -12 -3 -21 -11 -21 -16 0 -15 15 -10 38 12 21 19 49 18
37 -2 -4 -5 1 -9 9 -9 10 0 13 6 9 16 -5 13 -2 15 13 10 14 -4 29 4 53 29 18
19 28 35 22 35 -5 0 -16 -9 -24 -21 -15 -21 -74 -33 -97 -19 -7 4 -12 19 -12
34 0 14 -4 26 -9 26 -5 0 -8 -6 -6 -12z"/>
<path d="M1205 1793 c-11 -24 -17 -58 -9 -51 3 3 7 14 9 25 2 10 4 19 4 21 1
1 11 -3 24 -9 22 -12 22 -12 3 10 -23 25 -22 25 -31 4z"/>
<path d="M1922 1756 c-18 -38 -19 -45 -6 -50 9 -3 12 -1 9 4 -3 6 -1 10 5 10
7 0 10 6 7 13 -8 21 7 39 26 31 18 -7 24 -34 7 -34 -16 0 -12 -19 10 -42 22
-24 26 -38 9 -38 -5 0 -7 -4 -4 -10 3 -5 -1 -10 -10 -10 -11 0 -15 5 -11 15 3
8 2 16 -2 16 -4 1 -20 3 -35 5 -16 1 -35 8 -42 14 -9 8 -15 8 -20 0 -3 -5 5
-14 19 -20 14 -5 26 -11 26 -12 0 -2 -21 -2 -47 -1 -27 1 -38 -1 -25 -3 12 -3
22 -12 22 -19 0 -8 8 -19 18 -24 10 -6 12 -11 4 -11 -22 0 -3 -20 19 -20 19 0
19 -1 3 -17 -16 -16 -18 -15 -39 11 l-22 28 0 -26 c0 -14 3 -23 8 -21 4 3 10
1 14 -5 3 -5 -1 -10 -10 -10 -9 0 -13 -4 -10 -10 3 -5 15 -10 26 -10 10 0 19
-4 19 -9 0 -5 7 -16 15 -25 15 -14 11 -46 -6 -46 -5 0 -9 -7 -9 -16 0 -11 5
-14 16 -10 9 3 17 6 20 6 2 0 1 7 -2 15 -4 8 -1 15 5 15 6 0 11 -5 11 -10 0
-7 6 -7 20 0 11 6 20 17 20 25 0 8 9 15 19 15 23 0 36 16 21 25 -5 3 -10 2
-10 -4 0 -6 -7 -8 -15 -5 -9 4 -16 -3 -21 -20 -8 -35 -17 -33 -48 12 -31 45
-31 50 -9 74 15 17 15 20 -10 46 -27 28 -36 49 -17 37 6 -4 18 -1 26 6 18 15
19 14 31 -38 9 -34 8 -45 -4 -54 -11 -10 -11 -14 -1 -20 9 -6 9 -9 1 -9 -6 0
-9 -9 -6 -20 5 -21 6 -21 19 -1 8 11 11 27 7 37 -3 10 -2 15 3 12 5 -4 8 11 8
33 -2 35 1 39 22 39 30 0 32 -20 3 -27 -21 -6 -21 -7 -4 -19 11 -8 16 -21 12
-34 -3 -13 0 -20 8 -20 23 0 28 20 11 45 -15 23 -15 25 1 25 10 0 25 -5 33
-10 12 -8 13 -11 1 -19 -11 -7 -10 -13 3 -33 9 -14 13 -28 9 -31 -3 -4 -2 -7
4 -7 6 0 13 9 16 20 3 11 1 20 -4 20 -5 0 -9 7 -9 15 0 9 6 12 15 9 10 -4 15
0 15 16 0 11 -4 19 -9 16 -19 -12 -39 5 -35 30 2 13 0 24 -6 24 -5 0 -10 -7
-10 -15 0 -19 -9 -19 -34 0 -16 12 -17 18 -8 27 10 10 15 10 22 -2 5 -8 10
-10 10 -5 0 6 -16 23 -35 38 -32 26 -40 54 -12 44 7 -2 20 0 29 5 15 7 17 5
12 -22 -4 -19 -2 -30 5 -30 14 0 15 66 1 75 -5 3 -10 1 -10 -4 0 -16 -14 -13
-36 7 -50 44 -49 44 -72 -2z"/>
<path d="M2150 1781 c0 -10 7 -22 16 -25 8 -3 14 -15 12 -25 -2 -11 0 -20 5
-21 22 -1 24 2 14 25 -7 14 -15 25 -19 25 -5 0 -8 9 -8 20 0 11 -4 20 -10 20
-5 0 -10 -9 -10 -19z"/>
<path d="M957 1772 c5 -11 2 -14 -10 -9 -9 3 -19 2 -22 -3 -6 -9 8 -14 28 -11
62 10 77 11 77 3 0 -5 -10 -12 -22 -15 -31 -8 -19 -16 14 -10 24 5 26 8 17 25
-7 13 -17 18 -30 15 -10 -3 -19 -2 -19 3 0 4 -9 10 -19 13 -15 3 -18 1 -14
-11z"/>
<path d="M1760 1781 c0 -5 8 -8 17 -7 10 0 19 -8 22 -22 8 -30 25 -33 29 -6 2
14 -5 24 -23 32 -31 14 -45 15 -45 3z"/>
<path d="M1315 1758 c-11 -11 -19 -24 -17 -29 1 -5 -2 -9 -8 -9 -5 0 -10 -4
-10 -10 0 -5 7 -10 15 -10 8 0 15 -5 15 -11 0 -7 -10 -9 -24 -5 -16 4 -30 0
-40 -10 -17 -17 -22 -59 -6 -49 6 3 10 15 10 26 0 21 20 25 38 7 9 -9 15 -8
25 6 7 9 17 16 22 14 11 -3 52 23 54 35 3 18 16 -1 16 -24 0 -17 6 -26 18 -26
14 -2 15 2 7 17 -8 15 -6 19 8 22 13 3 9 8 -15 20 -31 15 -32 15 -54 -8 -13
-14 -30 -23 -38 -22 -16 3 -26 48 -11 48 6 0 10 -4 10 -10 0 -5 5 -10 12 -10
9 0 9 3 0 12 -17 17 -15 26 6 30 14 3 14 5 2 9 -8 4 -24 -3 -35 -13z"/>
<path d="M1100 1756 c0 -8 -5 -16 -12 -18 -8 -3 -7 -11 5 -28 9 -14 17 -18 17
-11 0 11 3 11 15 1 19 -16 20 -34 1 -27 -19 8 -42 -18 -25 -29 8 -5 9 -3 4 6
-6 10 -4 12 7 7 10 -3 24 4 37 19 23 26 46 33 38 10 -4 -10 2 -13 19 -12 20 1
22 3 9 12 -25 19 -17 27 21 21 30 -5 34 -4 21 6 -18 13 -12 31 13 39 10 3 11
6 2 12 -7 4 -22 -3 -36 -17 -37 -37 -80 -49 -119 -32 -24 10 -28 15 -16 20 16
6 22 35 7 35 -4 0 -8 -6 -8 -14z"/>
<path d="M1513 1763 c-13 -2 -23 -9 -23 -15 0 -5 6 -8 13 -5 10 4 13 -2 11
-21 -2 -15 -1 -19 2 -9 5 15 8 16 22 5 15 -12 16 -11 3 4 -7 10 -11 25 -7 33
3 8 4 14 3 14 -1 -1 -12 -4 -24 -6z"/>
<path d="M2074 1727 c1 -25 5 -36 13 -32 8 2 13 -4 13 -15 0 -22 15 -33 50
-38 13 -2 31 -8 40 -15 12 -9 13 -9 3 3 -10 10 -10 17 -1 27 9 11 8 13 -3 11
-8 -2 -17 -7 -21 -13 -5 -7 -13 -6 -25 1 -27 16 -27 33 -1 27 18 -4 20 -3 8 6
-8 6 -23 11 -32 11 -11 0 -23 13 -31 33 l-14 32 1 -38z"/>
<path d="M893 1723 c-3 -10 -8 -21 -10 -25 -2 -5 3 -8 12 -8 11 0 15 5 11 15
-3 8 -1 15 4 15 6 0 10 5 10 10 0 17 -20 11 -27 -7z"/>
<path d="M1026 1704 c-6 -15 9 -54 20 -54 3 0 15 9 27 21 l22 20 -26 -10 c-27
-10 -39 -6 -39 12 0 5 8 7 18 5 11 -3 19 0 19 8 0 19 -33 18 -41 -2z"/>
<path d="M1600 1714 c1 -21 46 -54 74 -54 7 0 24 -8 37 -18 36 -28 59 -34 52
-15 -5 11 -3 14 6 9 9 -6 9 -3 -1 13 -15 25 -30 28 -21 5 4 -12 1 -15 -12 -13
-10 2 -19 12 -21 22 -1 9 2 15 6 12 5 -3 11 -1 15 5 3 5 3 10 -2 11 -4 0 -20
3 -35 5 -14 2 -29 0 -33 -5 -8 -14 -36 -1 -28 13 3 6 3 8 -2 4 -4 -4 -14 -3
-22 3 -7 6 -13 8 -13 3z"/>
<path d="M677 1704 c-3 -3 -2 -17 3 -30 6 -14 6 -26 0 -29 -6 -4 -10 -3 -10 1
0 3 -7 1 -15 -6 -23 -19 -18 -27 14 -26 16 1 27 5 24 10 -3 4 0 12 7 16 9 6 9
12 0 30 -16 30 -4 38 19 12 25 -30 35 -28 15 3 -15 23 -43 33 -57 19z"/>
<path d="M1780 1698 c0 -5 5 -6 10 -3 6 3 10 -1 10 -9 0 -9 6 -16 14 -16 25 0
14 35 -11 36 -13 1 -23 -2 -23 -8z"/>
<path d="M773 1693 c4 -3 2 -12 -4 -20 -15 -18 9 -17 33 1 20 15 14 26 -15 26
-11 0 -17 -3 -14 -7z"/>
<path d="M2280 1690 c0 -5 -8 -10 -17 -11 -15 0 -15 -2 2 -9 17 -7 18 -9 4
-14 -11 -5 -14 -15 -11 -32 5 -26 22 -33 22 -9 0 8 4 15 8 15 4 0 8 16 8 35 0
19 -4 35 -8 35 -4 0 -8 -4 -8 -10z"/>
<path d="M1517 1668 c-6 -23 3 -42 10 -21 3 7 18 10 41 7 35 -4 35 -4 12 7
-14 7 -31 11 -39 10 -7 -1 -10 2 -6 8 3 6 2 11 -3 11 -5 0 -12 -10 -15 -22z"/>
<path d="M2329 1677 c10 -13 11 -20 2 -31 -7 -8 -8 -17 -3 -20 5 -3 12 -20 16
-37 4 -22 10 -30 21 -26 11 5 14 0 11 -21 -2 -15 -1 -19 1 -9 2 9 10 17 17 17
8 0 12 13 12 34 -1 32 -16 42 -16 10 0 -19 -19 -18 -26 1 -4 9 -7 29 -8 46 -1
19 -9 35 -21 42 -18 9 -19 9 -6 -6z"/>
<path d="M830 1653 c-19 -25 -20 -28 -5 -39 9 -7 15 -20 13 -30 -2 -9 2 -19 7
-20 6 -2 10 10 10 26 0 17 -5 30 -12 30 -7 0 -13 5 -13 10 0 6 7 10 16 10 8 0
12 5 8 11 -3 6 0 15 7 20 9 6 10 9 2 9 -6 0 -21 -12 -33 -27z"/>
<path d="M1346 1646 c-11 -17 -12 -27 -5 -32 6 -4 15 0 20 7 7 12 9 11 10 -1
1 -8 1 -17 1 -20 0 -3 12 -5 26 -4 17 0 28 7 30 17 4 21 21 22 28 3 3 -8 12
-12 19 -10 7 3 25 -6 39 -19 17 -16 34 -23 46 -20 11 3 20 0 20 -6 0 -6 6 -11
14 -11 8 0 13 8 12 17 -2 14 -11 17 -38 15 -30 -3 -36 0 -35 15 1 12 -6 19
-21 21 -12 2 -20 7 -17 11 2 5 -4 16 -15 26 -19 17 -20 17 -20 1 0 -13 -5 -16
-21 -11 -13 5 -19 3 -15 -3 3 -5 -5 -12 -19 -14 -22 -5 -41 13 -37 35 3 14 -6
7 -22 -17z"/>
<path d="M2212 1637 c-2 -17 -4 -41 -6 -52 -1 -11 2 -25 7 -32 6 -8 3 -18 -8
-29 -18 -18 -13 -25 30 -38 15 -4 23 1 32 21 7 15 10 29 7 32 -4 3 -9 0 -11
-6 -3 -7 -11 -13 -19 -13 -12 0 -12 4 -4 21 7 11 9 23 6 27 -3 3 -6 -1 -6 -9
0 -12 -2 -12 -9 0 -10 15 -8 62 3 79 7 12 0 32 -12 32 -4 0 -8 -15 -10 -33z"/>
<path d="M1150 1645 c0 -8 -8 -15 -17 -16 -14 0 -15 -2 -3 -6 8 -3 26 -14 40
-23 34 -24 58 -22 55 4 -1 12 -3 26 -4 32 0 7 -8 14 -15 17 -10 4 -13 1 -10
-7 5 -14 -23 -43 -32 -33 -3 3 -1 15 6 26 9 17 8 21 -5 21 -8 0 -15 -7 -15
-15z"/>
<path d="M745 1610 c4 -26 3 -40 -4 -40 -6 0 -11 -7 -11 -15 0 -8 5 -15 11
-15 5 0 7 5 4 10 -3 6 -1 10 4 10 6 0 11 9 11 19 0 11 6 22 13 24 7 3 4 6 -6
6 -14 1 -17 6 -12 21 4 12 2 20 -5 20 -8 0 -10 -13 -5 -40z"/>
<path d="M990 1645 c0 -13 38 -41 51 -37 8 3 10 1 6 -4 -5 -5 6 -13 22 -19 37
-12 44 -29 14 -33 -13 -2 -23 1 -23 7 0 6 -7 11 -15 11 -20 0 -19 -6 5 -30 11
-11 20 -17 20 -13 0 4 5 2 11 -4 13 -13 39 5 33 22 -3 6 5 11 16 12 12 1 23
-4 26 -12 3 -8 13 -11 21 -8 12 5 14 3 8 -6 -6 -10 -3 -11 14 -2 28 16 27 27
-5 35 -15 4 -41 18 -58 30 -17 13 -52 27 -78 30 -27 4 -48 11 -48 17 0 5 -4 9
-10 9 -5 0 -10 -2 -10 -5z"/>
<path d="M1540 1630 c0 -5 7 -10 16 -10 8 0 12 -4 9 -10 -3 -5 1 -10 10 -10 9
0 13 5 10 10 -3 6 1 10 9 10 9 0 16 5 16 10 0 7 -6 8 -17 1 -11 -6 -24 -6 -35
0 -12 6 -18 6 -18 -1z"/>
<path d="M1680 1631 c0 -5 -9 -7 -20 -4 -15 4 -20 0 -20 -15 0 -12 8 -21 23
-25 12 -2 29 -8 38 -11 11 -5 19 -1 23 10 5 13 2 15 -17 10 -16 -4 -24 -1 -24
8 0 9 7 12 16 8 14 -5 14 -3 2 11 -15 19 -21 21 -21 8z"/>
<path d="M1793 1611 c-2 -24 1 -28 16 -24 19 5 22 18 8 41 -13 20 -22 14 -24
-17z"/>
<path d="M2994 1380 c0 -146 2 -205 3 -132 2 72 2 192 0 265 -1 72 -3 13 -3
-133z"/>
<path d="M893 1620 c-24 -10 -31 -44 -11 -56 7 -5 9 0 6 14 -5 20 16 40 25 24
2 -4 2 -2 1 5 -2 6 2 14 9 17 7 2 8 4 2 5 -5 0 -20 -4 -32 -9z"/>
<path d="M1265 1609 c-11 -17 5 -25 16 -9 9 13 10 13 6 -1 -8 -26 8 -43 29
-30 11 6 14 11 8 11 -7 0 -14 9 -17 20 -5 21 -31 27 -42 9z"/>
<path d="M2146 1606 c3 -8 1 -17 -5 -21 -16 -9 -13 -25 3 -19 14 5 30 -22 21
-36 -3 -5 -1 -11 5 -15 14 -9 24 22 12 38 -5 6 -12 24 -16 40 -3 15 -11 27
-16 27 -5 0 -7 -6 -4 -14z"/>
<path d="M1479 1577 c11 -14 10 -22 -7 -51 -22 -37 -20 -46 7 -39 13 3 17 11
13 30 -7 37 19 26 39 -17 13 -27 17 -30 22 -16 12 30 8 49 -8 42 -14 -5 -20 5
-16 27 1 5 -3 6 -9 2 -5 -3 -10 -2 -10 2 0 5 -10 14 -22 22 -21 13 -22 13 -9
-2z"/>
<path d="M914 1545 c-3 -19 -11 -35 -17 -35 -5 0 -2 -8 7 -19 16 -17 16 -19
-1 -26 -10 -5 -22 -7 -27 -6 -5 1 -6 -5 -2 -14 3 -9 6 -18 6 -21 0 -2 7 -1 15
2 8 4 15 12 15 20 0 16 16 19 25 4 3 -5 14 -14 24 -19 13 -7 18 -6 18 5 0 7
-3 14 -7 14 -3 0 -16 17 -27 38 -15 26 -18 43 -12 59 4 13 4 25 -1 28 -5 3
-12 -10 -16 -30z"/>
<path d="M1240 1560 c0 -11 -4 -20 -10 -20 -5 0 -10 -8 -10 -17 1 -16 2 -16
15 2 8 11 19 25 25 32 14 17 13 23 -5 23 -8 0 -15 -9 -15 -20z"/>
<path d="M1408 1559 c-7 -5 -9 -9 -4 -9 4 0 1 -12 -9 -26 -12 -19 -13 -25 -3
-22 7 2 17 14 23 26 11 24 31 29 37 10 3 -8 6 -6 10 4 8 18 -32 31 -54 17z"/>
<path d="M2310 1554 c0 -11 6 -26 13 -33 10 -10 9 -15 -5 -25 -10 -7 -18 -17
-18 -21 0 -5 9 0 21 11 14 13 18 25 14 44 -9 34 -25 50 -25 24z"/>
<path d="M540 1545 c11 -13 11 -20 0 -39 -7 -13 -9 -30 -5 -36 4 -7 3 -15 -2
-19 -6 -3 -14 -21 -18 -38 -6 -30 -4 -33 17 -33 18 0 20 2 8 10 -16 10 -20 7
56 34 28 10 46 11 58 4 10 -6 33 -8 51 -6 19 2 31 0 28 -5 -3 -5 0 -8 6 -6 24
8 16 23 -16 30 -18 3 -30 2 -27 -2 3 -5 -4 -9 -15 -9 -10 0 -21 5 -23 11 -3 8
-20 6 -58 -5 -65 -19 -76 -20 -62 -3 24 29 24 127 0 127 -6 0 -6 -6 2 -15z"/>
<path d="M618 1524 c-18 -34 -15 -41 10 -25 8 4 12 20 10 34 -3 24 -3 24 -20
-9z"/>
<path d="M685 1540 c-3 -11 -12 -20 -18 -20 -7 0 -6 -4 3 -10 11 -7 18 -3 27
13 15 27 16 37 4 37 -5 0 -13 -9 -16 -20z"/>
<path d="M1795 1551 c9 -15 -32 -23 -56 -11 -16 9 -24 9 -33 0 -6 -6 -6 -11
-1 -10 6 2 18 2 29 1 14 -1 16 -4 7 -14 -6 -8 -7 -18 -3 -22 4 -5 0 -6 -9 -3
-9 4 -16 1 -16 -8 0 -8 7 -14 16 -14 14 0 14 -2 1 -10 -11 -7 -12 -10 -2 -10
8 0 16 9 19 21 6 22 45 24 49 1 1 -7 0 -8 -3 -2 -7 14 -21 13 -20 -2 1 -33 -4
-49 -13 -43 -12 8 -13 -5 -1 -24 6 -10 14 -5 33 20 41 55 41 66 3 73 -19 4
-37 12 -41 18 -5 7 2 9 19 6 15 -3 28 0 31 6 2 7 11 3 21 -9 14 -17 14 -15 -1
13 -10 17 -22 32 -27 32 -4 0 -6 -4 -2 -9z"/>
<path d="M1355 1540 c-4 -6 -11 -8 -16 -5 -5 4 -9 1 -9 -4 0 -6 -12 -11 -27
-12 l-28 0 25 -10 c20 -8 22 -12 10 -19 -12 -8 -12 -10 -2 -10 8 0 25 9 39 20
14 11 22 20 18 20 -4 0 -2 7 5 15 8 9 9 15 2 15 -6 0 -14 -5 -17 -10z"/>
<path d="M1640 1531 c0 -11 5 -23 10 -26 7 -4 6 -13 -1 -27 -6 -11 -7 -18 -1
-14 5 3 15 20 22 37 11 26 11 32 -1 40 -22 13 -29 11 -29 -10z"/>
<path d="M2110 1531 c0 -5 5 -11 11 -13 8 -3 5 -10 -6 -21 -9 -10 -15 -21 -11
-24 7 -8 35 27 36 43 0 7 -7 14 -15 18 -8 3 -15 1 -15 -3z"/>
<path d="M1600 1515 c10 -12 10 -15 -3 -15 -8 0 -18 6 -20 13 -3 6 -4 -3 -2
-21 4 -53 22 -61 34 -17 11 39 8 55 -11 55 -7 0 -6 -6 2 -15z"/>
<path d="M2045 1500 c-3 -6 1 -13 10 -16 9 -4 14 -13 11 -20 -3 -7 -1 -16 3
-19 16 -9 20 23 6 35 -8 7 -12 16 -9 21 3 5 1 9 -5 9 -5 0 -13 -5 -16 -10z"/>
<path d="M1185 1487 c-5 -7 -11 -19 -13 -26 -3 -16 -20 -34 -46 -48 -18 -10
-16 -11 10 -9 16 2 29 5 30 7 0 2 6 14 13 27 13 24 36 20 27 -4 -3 -8 -3 -14
0 -14 10 0 34 28 34 39 0 6 5 11 10 11 6 0 9 -3 8 -7 -3 -8 5 -13 22 -13 6 0
10 4 10 9 0 15 -41 20 -61 8 -14 -9 -21 -9 -30 0 -10 10 -7 15 12 22 21 8 21
10 4 10 -11 0 -24 -5 -30 -12z"/>
<path d="M1847 1480 c-3 -11 1 -27 9 -35 16 -15 2 -31 -17 -19 -6 3 -3 -6 7
-21 14 -21 15 -28 5 -35 -8 -4 -9 -10 -4 -13 11 -7 30 25 35 58 2 11 -4 27
-15 37 -11 10 -14 19 -7 23 12 8 13 25 1 25 -5 0 -11 -9 -14 -20z"/>
<path d="M815 1480 c-7 -11 2 -30 14 -30 5 0 11 9 14 20 5 21 -16 29 -28 10z"/>
<path d="M1357 1483 c-11 -11 -8 -35 3 -28 6 4 17 2 24 -4 10 -8 22 -8 41 -1
23 9 25 13 15 25 -15 18 -24 20 -14 3 5 -7 2 -9 -9 -5 -9 3 -18 1 -21 -6 -3
-8 -9 -7 -19 5 -8 10 -17 15 -20 11z"/>
<path d="M2161 1451 c0 -8 -9 -11 -22 -8 -16 4 -18 3 -9 -8 8 -9 4 -21 -16
-44 -29 -35 -26 -38 22 -15 42 20 48 16 29 -19 -8 -15 -10 -27 -4 -27 5 0 9 4
9 8 0 5 10 13 22 19 l21 9 -21 20 c-11 10 -22 33 -25 49 -2 17 -5 24 -6 16z"/>
<path d="M1500 1440 c0 -7 -7 -10 -15 -6 -8 3 -15 0 -15 -7 0 -8 -4 -6 -10 3
-8 13 -11 12 -23 -4 -16 -21 -53 -31 -62 -16 -3 5 -12 7 -20 3 -9 -3 -15 1
-15 10 0 8 -7 14 -15 13 -25 -4 -28 -14 -6 -26 29 -15 26 -30 -6 -31 -37 -1
-70 -14 -56 -22 6 -4 39 2 73 13 75 24 70 24 70 5 0 -8 -7 -15 -17 -15 -9 0
-13 -3 -9 -7 4 -4 13 -8 19 -8 7 0 13 -4 14 -8 2 -9 43 -47 51 -47 2 0 -1 7
-8 15 -7 8 -9 15 -5 15 5 0 -3 9 -16 21 -19 17 -21 22 -9 29 8 6 11 10 7 10
-5 0 -2 7 7 15 16 17 71 21 61 5 -7 -12 2 -12 30 0 18 8 19 9 1 9 -12 1 -16 6
-13 16 4 8 2 17 -3 20 -6 4 -10 1 -10 -5z"/>
<path d="M2472 1434 c-6 -12 -8 -24 -5 -28 10 -10 63 -7 63 4 0 5 -6 7 -13 4
-8 -3 -18 5 -24 18 l-10 23 -11 -21z"/>
<path d="M2684 1442 c-8 -5 -9 -20 -4 -47 4 -22 8 -32 9 -23 0 9 6 18 13 20 7
3 8 12 2 31 -6 16 -13 24 -20 19z"/>
<path d="M1243 1423 c-7 -2 -13 -11 -13 -18 0 -8 -8 -12 -19 -10 -11 2 -22 -3
-25 -11 -3 -8 1 -14 9 -14 8 0 15 -4 15 -10 0 -5 5 -10 10 -10 6 0 10 8 8 18
-2 12 3 17 19 16 13 0 21 2 18 4 -3 3 3 11 13 19 15 13 15 13 -7 7 -16 -4 -21
-3 -17 5 8 12 7 12 -11 4z"/>
<path d="M1587 1416 c5 -15 3 -18 -10 -13 -9 3 -17 2 -17 -4 0 -22 -26 -34
-67 -33 -44 2 -57 -9 -26 -20 9 -4 20 -1 24 6 7 10 12 9 26 -4 16 -17 16 -18
-5 -18 -12 0 -22 -4 -22 -10 0 -14 23 -12 56 5 20 10 23 15 12 15 -10 0 -18 3
-18 8 0 13 54 31 83 28 15 -2 27 1 27 5 0 5 -8 9 -19 9 -10 0 -26 10 -35 23
-12 18 -14 18 -9 3z"/>
<path d="M800 1411 c0 -5 -10 -7 -22 -5 -13 3 5 -6 39 -19 86 -33 120 -56 102
-69 -10 -6 -7 -7 9 -3 21 6 23 4 17 -17 -4 -14 -3 -18 3 -10 13 18 61 -9 111
-63 42 -46 55 -53 66 -35 3 6 -1 7 -9 4 -9 -3 -16 -1 -16 5 0 6 9 12 20 12 33
2 38 4 47 13 4 5 -8 6 -30 2 -42 -8 -68 1 -46 15 10 6 10 9 2 9 -20 0 -170
100 -150 100 9 0 17 5 17 10 0 7 -7 7 -21 0 -17 -10 -27 -7 -58 14 -20 14 -42
26 -49 26 -7 0 -12 5 -12 10 0 6 -4 10 -10 10 -5 0 -10 -4 -10 -9z"/>
<path d="M994 1413 c3 -3 1 -14 -4 -24 -8 -13 -6 -19 8 -22 14 -4 13 -6 -6
-12 -23 -7 -23 -8 -3 -22 18 -12 24 -12 46 3 27 18 33 29 11 21 -16 -6 -53 29
-42 40 4 4 16 1 28 -6 14 -9 23 -10 31 -2 6 6 9 13 6 15 -6 6 -81 15 -75 9z"/>
<path d="M2920 1394 c0 -16 -7 -51 -15 -78 -12 -38 -12 -52 -4 -60 9 -8 10 -8
5 1 -3 6 -2 14 4 18 5 3 10 17 10 31 0 13 4 24 8 24 9 0 8 78 -2 87 -3 4 -6
-7 -6 -23z"/>
<path d="M1991 1399 c-14 -5 -31 -7 -38 -5 -7 3 -13 1 -13 -4 0 -6 5 -10 11
-10 8 0 8 -5 -1 -15 -22 -27 -47 -16 -41 18 1 5 -3 6 -9 2 -6 -3 -8 -10 -5
-15 3 -5 1 -11 -5 -15 -8 -5 -8 -26 0 -55 1 -3 6 6 11 19 8 19 12 22 22 12 9
-9 9 -14 -1 -20 -7 -4 -15 -17 -16 -27 -2 -14 -10 -18 -27 -16 -13 2 -21 0
-16 -4 4 -4 24 -9 44 -11 28 -2 34 0 25 9 -7 7 -12 19 -12 28 0 13 1 13 10 0
10 -15 11 -13 14 29 2 29 13 35 31 18 14 -14 14 -17 -1 -25 -10 -6 -12 -12 -6
-16 5 -3 12 1 16 9 3 8 17 15 31 15 14 0 28 7 32 16 3 8 12 13 19 10 8 -3 14
1 14 9 0 12 -5 12 -25 3 -14 -6 -25 -15 -25 -20 0 -19 -38 -6 -48 17 -10 22
-9 27 6 32 9 3 21 8 26 11 4 2 5 -6 1 -19 -5 -19 -4 -21 4 -9 12 17 14 40 4
39 -5 0 -19 -5 -32 -10z"/>
<path d="M1821 1392 c0 -7 -5 -10 -11 -7 -5 3 -7 0 -4 -9 3 -8 -3 -19 -15 -25
-28 -16 -33 -14 -26 10 6 18 5 19 -13 10 -20 -11 -52 -6 -52 8 0 4 -7 8 -14 8
-11 0 -12 -5 -5 -18 7 -14 5 -21 -12 -29 -11 -7 -27 -9 -34 -6 -8 3 -17 1 -20
-4 -4 -6 1 -10 9 -10 25 0 19 -19 -8 -26 -17 -4 -22 -11 -19 -25 4 -12 0 -19
-10 -19 -14 0 -69 -39 -55 -40 12 0 88 44 88 52 0 4 10 8 23 9 12 0 17 3 10 6
-9 3 -7 10 6 24 13 14 34 20 73 23 62 3 103 31 95 63 -3 10 -5 12 -6 5z"/>
<path d="M455 1350 c-10 -11 -23 -20 -29 -20 -13 0 -49 -37 -65 -67 -6 -13
-18 -23 -26 -23 -8 0 -18 -12 -21 -27 -4 -16 -12 -31 -18 -35 -6 -4 -8 -10 -4
-13 8 -8 48 26 48 41 0 12 44 57 113 115 35 30 47 49 29 49 -5 0 -17 -9 -27
-20z"/>
<path d="M736 1361 c-4 -5 3 -12 14 -16 11 -4 18 -11 15 -16 -4 -5 -2 -9 3 -9
11 0 25 -30 17 -38 -3 -3 -14 3 -25 13 -17 16 -20 16 -15 3 8 -19 32 -31 47
-22 5 3 7 13 4 21 -9 22 3 36 20 22 8 -6 17 -9 20 -6 10 10 -19 33 -41 32 -11
0 -27 6 -37 13 -10 8 -18 10 -22 3z"/>
<path d="M1080 1330 c0 -11 5 -20 10 -20 6 0 10 -9 10 -20 0 -13 7 -20 20 -20
11 0 20 6 20 14 0 21 30 29 49 13 9 -8 24 -17 34 -20 21 -8 49 2 41 15 -4 5
-10 5 -18 -1 -6 -5 -17 -7 -23 -3 -7 5 -3 13 12 24 21 16 23 16 43 -3 18 -16
20 -23 11 -42 -8 -18 -17 -22 -40 -19 -18 3 -29 0 -29 -8 0 -7 8 -9 20 -5 11
4 20 2 20 -4 0 -6 7 -11 15 -11 8 0 15 8 15 18 0 25 45 76 59 68 8 -5 8 -13 1
-27 -6 -11 -15 -17 -19 -14 -5 2 -15 -3 -22 -12 -12 -15 -12 -16 4 -10 20 8
23 -13 5 -32 -7 -7 -8 -12 -3 -11 43 9 48 -28 8 -60 l-28 -21 25 7 c14 4 27 9
30 13 3 3 10 7 15 8 6 1 18 5 28 8 10 4 17 3 17 -4 0 -13 52 -4 89 15 25 13
41 11 41 -7 0 -5 -6 -9 -14 -9 -8 0 -17 -8 -20 -17 -5 -12 -9 -14 -18 -5 -14
14 -28 16 -28 3 0 -19 41 -23 54 -6 12 17 14 17 39 0 24 -16 27 -16 27 -1 0 9
-7 16 -15 16 -29 0 -15 29 19 40 29 9 40 8 66 -5 17 -9 39 -14 48 -12 14 4 13
6 -5 12 -13 4 -23 11 -23 15 0 5 -9 6 -20 3 -11 -3 -20 0 -20 6 0 6 8 11 18
11 10 0 26 6 36 13 15 11 12 13 -23 14 -31 1 -39 -2 -34 -13 11 -30 -97 -54
-135 -30 -7 4 -12 1 -12 -7 0 -14 -58 -32 -69 -22 -9 10 27 38 53 41 21 2 73
41 64 48 -17 15 -52 26 -68 21 -24 -8 -60 11 -60 30 0 9 -8 14 -22 12 -17 -1
-22 3 -20 16 4 24 -14 21 -33 -5 -14 -22 -17 -22 -43 -8 -28 16 -76 15 -67 -1
4 -5 -1 -9 -9 -9 -8 0 -18 5 -22 12 -4 7 -3 8 4 4 7 -4 12 -3 12 3 0 18 -18
21 -24 5 -4 -9 -9 -14 -13 -11 -3 4 -14 -3 -25 -15 -18 -21 -19 -21 -32 -2
-13 16 -13 19 0 22 21 5 17 22 -6 22 -13 0 -20 -7 -20 -20z m332 -67 c10 -16
18 -22 18 -15 0 9 7 11 21 7 15 -5 19 -4 14 5 -6 9 -3 9 14 1 29 -16 26 -29
-6 -37 -16 -3 -35 -8 -44 -10 -10 -3 -19 3 -22 16 -5 20 -37 29 -37 10 0 -5 7
-7 15 -4 9 4 15 0 15 -9 0 -17 -40 -31 -53 -18 -13 13 14 81 33 81 8 0 23 -12
32 -27z m-18 -88 c-19 -14 -34 -11 -34 6 0 13 44 29 49 17 1 -5 -5 -15 -15
-23z"/>
<path d="M1575 1320 c-3 -5 -3 -15 1 -21 4 -7 -3 -10 -19 -7 -15 1 -27 -1 -29
-7 -2 -5 7 -11 20 -13 24 -4 51 21 52 46 0 14 -16 16 -25 2z"/>
<path d="M1794 1306 c-11 -12 -31 -21 -46 -21 -22 1 -28 -4 -28 -21 0 -17 7
-23 30 -26 17 -3 30 -1 30 4 0 4 -8 8 -17 8 -14 0 -11 6 12 25 17 13 36 24 43
25 17 0 15 -19 -2 -26 -8 -3 -17 -13 -21 -22 -3 -9 -3 -13 1 -10 4 4 15 3 25
-3 16 -8 19 -6 19 11 0 11 7 23 15 26 21 8 19 25 -2 18 -17 -5 -17 -5 0 6 25
16 21 25 -11 26 -17 1 -36 -7 -48 -20z"/>
<path d="M2337 1313 c3 -7 -1 -13 -8 -14 -8 0 -5 -4 6 -9 30 -13 33 -12 31 13
0 14 -7 23 -17 23 -10 0 -15 -6 -12 -13z"/>
<path d="M1956 1267 c12 -32 -77 -70 -130 -56 -17 5 -35 4 -41 -1 -6 -5 -29
-7 -50 -4 l-40 4 29 -15 c36 -19 66 -19 66 0 0 8 5 15 11 15 5 0 8 -4 5 -9 -3
-5 4 -8 17 -8 12 1 35 -2 50 -6 21 -6 27 -5 21 4 -5 9 -2 10 9 6 10 -4 26 6
46 30 34 40 38 53 16 53 -8 0 -12 -6 -9 -13z"/>
<path d="M870 1253 c0 -16 26 -17 35 -2 4 6 14 8 22 5 8 -3 11 -1 8 4 -9 15
-65 8 -65 -7z"/>
<path d="M980 1223 c38 -46 54 -53 64 -27 5 14 4 15 -8 5 -11 -9 -16 -9 -21 0
-4 6 -1 15 6 20 11 7 10 9 -4 9 -10 0 -30 8 -45 18 -25 16 -24 14 8 -25z"/>
<path d="M849 1238 c7 -10 25 -18 40 -18 25 -1 25 -1 7 -15 -17 -13 -18 -15
-3 -15 9 0 17 5 17 11 0 6 6 9 13 6 8 -3 20 -1 27 3 9 5 -4 11 -36 15 -27 4
-56 13 -64 19 -13 10 -13 9 -1 -6z"/>
<path d="M1198 1219 c17 -18 15 -25 -10 -26 -13 -1 -27 -9 -33 -17 -13 -17
-85 -11 -98 8 -6 7 -7 6 -5 -3 3 -8 18 -19 34 -23 33 -9 105 -19 87 -11 -22 8
-15 36 7 30 11 -3 23 -1 26 4 10 17 46 9 51 -11 9 -34 39 -19 39 18 0 20 -2
21 -12 8 -14 -20 -24 -20 -24 0 0 11 -6 15 -20 11 -11 -3 -20 -2 -20 3 0 4 -8
11 -17 15 -15 5 -16 4 -5 -6z"/>
<path d="M2020 1219 c0 -6 -9 -9 -19 -6 -14 3 -18 1 -14 -9 4 -10 0 -12 -13
-7 -12 4 -15 3 -10 -5 7 -12 -9 -16 -44 -13 -10 1 -8 -3 5 -11 19 -11 18 -12
-10 -20 -21 -5 -34 -3 -46 8 -9 8 -28 17 -43 20 -21 3 -24 1 -19 -13 5 -12 2
-15 -10 -10 -11 4 -14 2 -10 -8 4 -13 8 -13 26 0 27 19 48 19 41 1 -4 -9 5
-15 28 -19 26 -4 41 1 70 24 38 30 58 36 58 19 0 -6 13 -9 29 -8 19 1 27 7 24
15 -3 8 4 13 18 14 16 1 19 3 7 6 -9 2 -28 -3 -41 -12 -17 -11 -27 -13 -32 -5
-3 5 1 13 9 16 18 7 22 34 6 34 -5 0 -10 -5 -10 -11z"/>
<path d="M259 1134 c-7 -9 -19 -32 -25 -51 -12 -33 -11 -34 6 -18 10 9 16 24
13 35 -3 12 2 20 16 25 12 3 21 11 21 16 0 14 -16 11 -31 -7z"/>
<path d="M1721 1128 c14 -25 44 -39 56 -27 8 8 17 7 32 0 16 -9 21 -9 21 1 0
9 3 9 12 0 14 -14 62 -16 53 -3 -3 6 -14 8 -25 6 -11 -2 -24 4 -30 13 -8 12
-13 13 -16 5 -3 -7 -12 -9 -20 -6 -8 3 -20 0 -27 -5 -8 -7 -18 -7 -27 -2 -10
7 -11 10 -2 10 6 0 12 6 12 13 0 6 -11 12 -24 12 -20 0 -22 -3 -15 -17z"/>
<path d="M2034 1135 c-22 -17 -38 -20 -29 -5 9 15 -7 12 -29 -5 -11 -8 -31
-15 -45 -15 -24 -1 -24 -2 -7 -11 13 -8 25 -8 43 0 13 6 35 11 48 11 14 0 29
8 35 20 13 24 10 25 -16 5z"/>
<path d="M1148 1124 c-4 -3 -1 -13 7 -20 19 -20 66 -8 57 14 -3 10 -7 12 -10
4 -5 -15 -39 -16 -44 -1 -2 5 -6 7 -10 3z"/>
<path d="M1628 1124 c6 -3 10 -9 7 -14 -3 -4 9 -7 25 -5 34 2 54 15 24 15 -10
0 -30 3 -44 5 -14 3 -19 3 -12 -1z"/>
<path d="M1676 1069 c-19 -19 -19 -19 0 -34 10 -8 23 -15 28 -15 6 0 1 6 -10
14 -19 14 -18 15 5 35 15 13 19 21 10 20 -8 0 -23 -9 -33 -20z"/>
<path d="M60 1050 c0 -6 6 -12 13 -14 6 -2 27 -8 45 -14 38 -12 39 -10 10 18
-23 21 -68 28 -68 10z"/>
<path d="M1756 1039 c5 -8 9 -18 9 -24 0 -5 10 -11 23 -13 12 -2 22 -8 22 -13
0 -13 -17 -11 -51 7 -17 8 -33 13 -36 10 -3 -3 11 -13 31 -22 20 -10 36 -22
36 -28 0 -6 5 -3 11 7 6 9 15 15 21 11 6 -4 6 1 -1 14 -6 12 -19 26 -29 31
-15 9 -14 10 6 11 12 0 22 -6 22 -12 0 -10 2 -10 8 0 5 7 16 10 24 7 9 -4 19
-2 23 4 4 7 -6 11 -28 11 -19 0 -49 3 -67 7 -27 5 -31 4 -24 -8z"/>
<path d="M154 961 c-18 -22 -19 -28 -8 -39 16 -15 40 -16 49 -2 4 6 -5 10 -21
10 -26 0 -27 1 -10 19 10 11 16 24 15 29 -2 5 -14 -3 -25 -17z"/>
<path d="M37 974 c-14 -15 -6 -33 16 -36 13 -2 22 -10 21 -19 -1 -11 5 -15 17
-12 28 8 23 38 -8 54 -16 7 -31 15 -34 16 -3 2 -8 0 -12 -3z"/>
<path d="M1802 904 c-12 -14 -19 -30 -16 -35 8 -14 24 0 17 16 -6 16 14 20 35
6 11 -6 10 -11 -3 -25 -15 -15 -15 -17 0 -22 9 -4 19 -4 22 0 4 3 1 6 -7 6
-10 0 -10 3 0 14 8 11 9 20 1 33 -6 10 -11 14 -11 8 -1 -5 -4 -2 -8 7 -6 15
-10 14 -30 -8z"/>
<path d="M123 887 c-11 -19 -35 -26 -55 -16 -23 12 -31 -15 -7 -29 16 -10 24
-7 51 17 18 16 30 32 26 36 -3 4 -10 0 -15 -8z"/>
<path d="M330 845 c-20 -24 -2 -37 25 -18 15 12 19 20 11 25 -16 11 -22 10
-36 -7z"/>
<path d="M188 824 c-21 -14 -38 -26 -38 -29 0 -12 32 -3 49 14 10 10 24 20 32
23 7 2 9 7 4 10 -6 3 -27 -5 -47 -18z"/>
<path d="M280 809 c-23 -10 -24 -11 -6 -21 18 -10 35 2 36 25 0 8 2 8 -30 -4z"/>
<path d="M1775 800 c-18 -20 -18 -21 1 -14 10 4 22 12 26 18 5 8 16 7 38 -1
16 -6 30 -8 30 -3 0 8 -35 20 -61 20 -9 0 -24 -9 -34 -20z"/>
<path d="M386 801 c-4 -6 12 -23 35 -38 23 -15 48 -32 55 -38 10 -7 19 -5 30
7 19 19 10 40 -16 36 -11 -2 -25 5 -32 14 -16 21 -63 33 -72 19z"/>
<path d="M1914 782 c4 -7 -3 -16 -17 -23 -24 -11 -29 -30 -14 -45 4 -4 7 1 7
11 0 14 3 15 15 5 8 -7 12 -17 8 -23 -3 -6 -1 -7 6 -3 7 5 8 13 2 24 -6 10 -6
23 0 34 6 11 5 19 -3 24 -7 4 -8 3 -4 -4z"/>
<path d="M545 769 c-4 -6 -1 -15 6 -20 21 -13 31 -11 27 8 -4 20 -24 28 -33
12z"/>
<path d="M1812 764 c-7 -8 -11 -20 -9 -27 4 -9 6 -9 6 1 1 6 12 12 26 12 14 0
25 5 25 12 0 6 -3 8 -7 5 -3 -4 -11 -3 -17 2 -7 6 -16 3 -24 -5z"/>
<path d="M2993 710 c0 -41 2 -58 4 -37 2 20 2 54 0 75 -2 20 -4 3 -4 -38z"/>
<path d="M214 748 c3 -13 6 -32 6 -42 0 -19 1 -19 20 -1 19 17 19 20 4 28 -16
9 -16 11 1 23 18 13 17 14 -9 14 -24 0 -28 -3 -22 -22z"/>
<path d="M306 763 c-3 -3 9 -18 26 -33 17 -15 28 -31 25 -36 -3 -5 6 -14 19
-21 19 -9 24 -8 24 3 0 8 7 14 15 14 8 0 15 5 15 10 0 6 -11 10 -25 10 -22 0
-43 12 -80 47 -7 7 -15 9 -19 6z"/>
<path d="M2780 752 c0 -16 48 -54 59 -47 18 11 12 24 -19 40 -33 17 -40 18
-40 7z"/>
<path d="M188 703 c-17 -17 -69 -25 -145 -24 -51 1 -55 -9 -12 -28 26 -11 36
-11 72 2 23 8 59 15 80 16 30 0 37 -3 37 -19 0 -23 25 -27 34 -5 7 18 23 20
28 2 2 -10 10 -10 38 0 23 8 28 12 14 12 -11 1 -25 6 -32 13 -7 7 -31 12 -54
13 -34 1 -42 5 -40 18 4 21 1 21 -20 0z"/>
<path d="M583 712 c-6 -4 -14 -25 -18 -46 -6 -29 -5 -37 4 -31 7 4 10 9 7 12
-9 9 14 43 29 43 8 0 15 7 15 15 0 16 -17 19 -37 7z"/>
<path d="M1377 686 c-27 -22 -37 -66 -16 -66 6 0 9 7 5 15 -8 22 36 65 61 59
11 -3 23 -2 26 3 11 18 -51 9 -76 -11z"/>
<path d="M1766 680 c18 -34 34 -48 34 -27 0 14 -32 57 -43 57 -3 0 1 -13 9
-30z"/>
<path d="M850 676 c0 -23 29 -27 40 -6 9 17 7 20 -15 20 -15 0 -25 -6 -25 -14z"/>
<path d="M1124 664 c3 -9 6 -18 6 -20 0 -3 9 0 20 6 28 15 25 30 -6 30 -20 0
-25 -4 -20 -16z"/>
<path d="M1577 660 c-20 -13 -25 -20 -16 -25 7 -5 17 -2 23 7 6 8 18 17 26 20
7 2 10 7 5 10 -6 3 -23 -3 -38 -12z"/>
<path d="M2901 671 c-16 -11 -7 -16 42 -25 45 -8 50 8 6 23 -18 6 -32 11 -33
11 -1 0 -7 -4 -15 -9z"/>
<path d="M918 657 c-22 -8 -26 -15 -22 -33 7 -26 -7 -37 -50 -40 -17 -1 -44
-5 -60 -8 -16 -4 -31 -7 -35 -8 -3 -1 -24 4 -45 10 -22 6 -42 9 -45 7 -2 -3 1
-5 7 -5 7 0 12 -9 12 -19 0 -17 5 -19 35 -14 28 4 39 2 50 -13 7 -10 17 -16
21 -12 4 4 2 14 -5 22 -9 11 -6 15 16 19 21 4 34 0 51 -19 27 -28 32 -30 32
-9 0 8 -7 15 -15 15 -8 0 -15 5 -15 10 0 6 8 10 18 10 28 0 64 34 51 47 -7 7
-4 17 12 32 25 23 25 23 -13 8z"/>
<path d="M2628 663 c-16 -2 -28 -9 -28 -14 0 -8 72 -8 120 0 3 1 -2 6 -10 11
-15 10 -33 10 -82 3z"/>
<path d="M462 634 c-13 -15 -29 -24 -37 -20 -12 4 -13 2 -2 -14 14 -24 37 -26
37 -5 0 8 4 15 9 15 5 0 11 11 13 25 3 14 5 25 4 25 0 0 -11 -12 -24 -26z"/>
<path d="M980 648 c0 -5 9 -12 21 -15 11 -3 18 -11 15 -18 -3 -8 2 -11 15 -8
22 6 25 19 7 26 -8 3 -6 6 5 6 34 2 16 16 -23 18 -22 0 -40 -3 -40 -9z"/>
<path d="M1261 650 c0 -9 -10 -22 -21 -30 -23 -17 -27 -32 -5 -24 9 4 15 0 15
-10 0 -9 4 -16 9 -16 4 0 6 -12 4 -27 -4 -25 -3 -26 7 -10 7 11 9 33 6 51 -6
30 -4 34 26 44 l33 11 -32 -5 c-24 -4 -32 -1 -36 13 -3 13 -5 14 -6 3z"/>
<path d="M2310 638 c0 -4 -7 -8 -15 -8 -8 0 -15 -5 -15 -11 0 -7 7 -8 18 -4 9
4 27 8 39 9 34 2 37 13 3 18 -16 3 -30 1 -30 -4z"/>
<path d="M1800 630 c-10 -6 -11 -14 -4 -30 9 -19 10 -20 29 -5 17 14 17 16 3
11 -10 -3 -18 -1 -18 3 0 5 5 11 12 13 7 3 8 7 2 11 -5 3 -16 2 -24 -3z"/>
<path d="M510 620 c-11 -7 -12 -10 -2 -10 7 0 11 -4 8 -9 -3 -5 5 -11 19 -13
29 -6 32 3 7 25 -12 11 -22 13 -32 7z"/>
<path d="M280 590 l-35 -31 42 23 c42 23 42 23 57 3 10 -13 15 -15 16 -6 0 12
-27 40 -40 41 -3 0 -21 -14 -40 -30z"/>
<path d="M1375 610 c-3 -5 3 -10 15 -10 29 0 23 -32 -8 -40 -12 -3 -29 -17
-36 -32 -14 -27 -14 -27 12 -17 15 6 31 14 37 19 15 12 64 15 93 6 35 -12 28
23 -8 37 -17 6 -33 19 -36 29 -6 20 -58 26 -69 8z"/>
<path d="M1506 594 c16 -16 30 -22 32 -15 2 6 10 11 18 11 9 0 13 4 10 9 -3 5
-15 7 -26 4 -11 -3 -20 0 -20 6 0 6 -10 11 -21 11 -21 0 -20 -2 7 -26z"/>
<path d="M2223 613 c-7 -2 -13 -11 -13 -19 0 -8 -8 -22 -19 -33 -25 -25 -12
-48 18 -30 17 11 25 11 41 1 26 -16 31 -15 23 5 -7 18 7 13 39 -15 16 -13 18
-13 24 2 5 13 14 15 34 11 22 -5 28 -2 33 16 4 16 3 19 -6 10 -15 -15 -27 -14
-27 4 0 18 -10 19 -35 2 -11 -7 -41 -14 -67 -15 -42 -1 -48 1 -48 19 0 12 8
23 20 26 11 3 20 9 20 14 0 10 -17 11 -37 2z"/>
<path d="M2977 594 c-11 -14 -16 -28 -12 -32 4 -4 10 -1 12 6 3 6 9 10 14 6 5
-3 9 6 9 20 0 32 0 32 -23 0z"/>
<path d="M187 604 c-9 -9 19 -34 37 -34 22 0 20 17 -3 30 -23 12 -26 12 -34 4z"/>
<path d="M2633 600 c-18 -4 -39 -13 -47 -20 -8 -6 -24 -9 -36 -5 -11 3 -20 2
-20 -4 0 -5 8 -11 17 -13 14 -2 11 -9 -16 -34 -41 -38 -39 -61 2 -39 16 8 42
16 58 17 16 1 29 6 29 11 0 5 -13 7 -30 4 -37 -8 -42 16 -7 34 12 7 27 19 33
28 10 13 15 13 27 2 11 -8 21 -10 33 -3 9 5 26 7 38 5 21 -4 21 -4 2 11 -21
17 -33 18 -83 6z"/>
<path d="M4 574 c-2 -28 8 -30 31 -7 13 12 22 14 34 7 9 -6 26 -8 39 -5 l22 6
-21 13 c-12 8 -18 9 -14 2 4 -7 -1 -9 -17 -6 -66 16 -73 15 -74 -10z"/>
<path d="M485 590 c-3 -5 -4 -14 0 -19 3 -5 1 -12 -5 -16 -19 -12 -10 -24 23
-27 17 -2 31 -8 30 -13 -1 -6 8 -12 20 -12 22 -2 22 -2 2 13 -11 8 -20 19 -20
24 0 6 -3 9 -6 8 -12 -6 -40 26 -35 39 6 15 0 18 -9 3z"/>
<path d="M2796 583 c-9 -23 6 -34 26 -19 15 11 15 13 -2 24 -15 9 -19 8 -24
-5z"/>
<path d="M1070 566 c0 -8 -4 -16 -10 -18 -5 -1 1 -8 14 -14 21 -10 23 -8 23
18 0 17 -6 28 -14 28 -7 0 -13 -6 -13 -14z"/>
<path d="M270 545 c-11 -13 -9 -15 15 -15 16 0 25 5 23 12 -7 19 -24 20 -38 3z"/>
<path d="M618 552 c-29 -3 -39 -22 -13 -22 8 0 15 -6 15 -13 0 -8 11 -13 28
-12 18 0 26 5 24 15 -5 24 -25 36 -54 32z"/>
<path d="M1112 539 c1 -13 11 -25 20 -27 15 -3 16 1 9 19 -11 32 -34 38 -29 8z"/>
<path d="M125 540 c3 -5 -9 -16 -27 -24 -27 -12 -29 -15 -11 -15 12 -1 28 2
37 5 18 7 22 44 5 44 -5 0 -7 -4 -4 -10z"/>
<path d="M1216 530 c-16 -16 -17 -22 -6 -35 7 -8 21 -15 30 -15 10 0 20 -4 22
-10 2 -5 14 -11 28 -12 17 -2 25 2 26 15 1 12 0 13 -3 2 -6 -19 -11 -19 -29
-1 -12 13 -11 17 8 30 18 13 19 16 6 16 -9 0 -20 -4 -23 -10 -3 -5 -21 -10
-38 -9 l-32 0 23 16 c21 15 30 34 15 32 -5 0 -17 -9 -27 -19z"/>
<path d="M1520 533 c0 -10 34 -31 45 -27 30 12 23 30 -11 30 -19 -1 -34 -2
-34 -3z"/>
<path d="M2100 523 l-25 -15 25 6 c14 3 35 6 48 6 13 0 20 4 17 10 -8 14 -35
11 -65 -7z"/>
<path d="M2988 453 c-2 -49 0 -104 3 -123 4 -20 7 19 8 88 0 67 -1 122 -3 122
-3 0 -6 -39 -8 -87z"/>
<path d="M30 518 c0 -6 7 -19 15 -28 14 -15 14 -18 0 -30 -18 -15 -20 -40 -3
-40 6 0 8 3 5 7 -4 3 8 17 25 30 29 21 30 23 10 23 -15 0 -26 9 -32 25 -10 26
-20 33 -20 13z"/>
<path d="M216 521 c-3 -5 4 -11 15 -14 12 -3 18 -10 15 -15 -3 -6 1 -12 9 -16
22 -8 27 9 7 26 -27 24 -40 29 -46 19z"/>
<path d="M1760 514 c0 -10 -7 -26 -17 -36 -21 -23 -12 -23 15 1 24 20 28 36
12 46 -5 3 -10 -2 -10 -11z"/>
<path d="M2810 517 c0 -9 -11 -12 -36 -9 -26 3 -35 1 -30 -7 9 -13 55 -14 75
-2 10 7 18 5 26 -5 8 -12 16 -13 38 -5 35 14 35 22 -1 15 -19 -4 -32 -1 -41
10 -16 19 -31 21 -31 3z"/>
<path d="M940 510 c0 -6 7 -22 16 -35 9 -14 13 -33 10 -47 l-7 -23 17 23 c11
14 27 22 46 22 16 0 41 9 55 20 34 27 53 26 46 -1 -4 -16 -2 -20 8 -17 8 3 15
12 17 21 5 27 -42 32 -75 9 -24 -16 -58 -21 -95 -14 -15 4 -8 22 9 22 18 0 12
10 -9 14 -7 1 -19 5 -25 9 -8 5 -13 3 -13 -3z"/>
<path d="M1791 483 c-22 -25 -29 -39 -21 -47 7 -7 10 -6 10 3 0 6 14 25 31 40
17 16 27 31 21 34 -5 4 -23 -10 -41 -30z"/>
<path d="M384 494 c3 -9 6 -18 6 -20 0 -2 7 -4 15 -4 8 0 15 -4 15 -10 0 -15
26 -12 40 5 11 13 9 15 -13 15 -13 0 -30 7 -37 15 -16 20 -34 19 -26 -1z"/>
<path d="M845 493 c4 -14 2 -23 -4 -23 -6 0 -8 -7 -5 -15 5 -11 -1 -15 -20
-15 -22 0 -25 -2 -14 -14 16 -17 39 -4 56 32 10 22 9 29 -4 42 -15 14 -16 13
-9 -7z"/>
<path d="M1022 494 c9 -9 21 -13 27 -10 20 13 11 26 -16 26 -25 0 -26 -1 -11
-16z"/>
<path d="M2451 501 c-8 -5 -38 -8 -65 -5 l-51 4 52 -15 c52 -15 110 -59 92
-70 -5 -4 -9 -13 -9 -21 0 -17 31 -19 48 -2 7 7 12 8 12 2 0 -5 14 -10 30 -11
21 -2 30 2 30 12 0 8 -9 15 -20 15 -23 0 -52 16 -88 47 -20 19 -22 25 -12 38
14 17 3 20 -19 6z"/>
<path d="M1352 475 c-25 -26 -30 -44 -7 -25 8 7 21 10 28 7 9 -3 13 2 12 14
-2 29 -8 30 -33 4z"/>
<path d="M2048 493 c-10 -2 -18 -8 -18 -13 0 -5 -10 -10 -22 -12 -15 -2 -22
-10 -22 -30 -2 -24 1 -26 29 -21 38 7 42 11 21 18 -47 15 -51 19 -21 23 17 1
41 12 55 22 24 19 17 23 -22 13z"/>
<path d="M2630 492 c0 -5 11 -14 25 -20 14 -6 25 -18 25 -27 0 -8 5 -15 10
-15 17 0 11 15 -18 43 -29 28 -42 33 -42 19z"/>
<path d="M492 481 c-10 -6 -7 -15 15 -37 27 -27 28 -30 12 -46 -10 -9 -20 -14
-22 -11 -3 3 -3 -4 0 -15 4 -17 8 -19 23 -10 10 7 16 18 13 25 -3 7 2 13 11
13 10 0 16 9 16 25 0 16 6 25 15 25 8 0 15 -6 15 -12 0 -7 7 -25 14 -40 8 -16
11 -28 6 -28 -4 0 -7 -15 -6 -32 1 -18 -2 -39 -8 -46 -15 -20 28 -54 59 -46
14 3 31 1 39 -5 10 -9 16 -9 21 -1 11 18 -4 25 -50 24 -38 -1 -42 1 -42 23 0
16 5 23 19 23 13 0 18 6 16 18 -2 10 -11 16 -21 14 -20 -3 -22 10 -4 39 10 17
10 23 0 26 -7 3 -13 11 -13 18 0 19 -39 45 -56 38 -20 -8 -66 6 -59 17 7 12 4
12 -13 1z"/>
<path d="M2137 483 c-10 -2 -28 -10 -41 -17 -21 -10 -13 -12 52 -10 43 1 101
3 131 3 66 1 61 12 -6 16 -26 1 -64 5 -83 8 -19 3 -43 3 -53 0z"/>
<path d="M1476 461 c-11 -12 -28 -18 -44 -16 -14 1 -43 -3 -63 -10 -21 -8 -40
-11 -43 -8 -10 10 -7 -11 4 -27 8 -13 10 -13 10 2 0 15 11 17 73 17 119 -1
182 19 162 51 -11 18 -80 12 -99 -9z m71 3 c30 -8 19 -24 -12 -18 -14 2 -25 0
-25 -6 0 -5 -7 -10 -15 -10 -17 0 -18 2 -9 24 6 17 24 20 61 10z"/>
<path d="M2597 446 c4 -21 22 -27 52 -17 2 0 -4 10 -14 21 -25 27 -43 26 -38
-4z"/>
<path d="M177 440 c-14 -11 -33 -20 -42 -20 -9 0 -13 -5 -10 -10 3 -6 -6 -15
-22 -21 -21 -8 -30 -7 -38 4 -8 11 -13 11 -30 -5 -20 -19 -20 -20 7 -13 21 5
29 3 34 -9 8 -21 16 -20 40 2 11 10 32 27 47 37 24 15 55 55 44 55 -3 0 -16
-9 -30 -20z"/>
<path d="M227 435 c-10 -14 -13 -25 -7 -25 5 0 10 5 10 10 0 6 7 10 15 10 8 0
15 -5 15 -11 0 -8 5 -8 15 1 13 11 13 14 -2 26 -24 18 -25 17 -46 -11z"/>
<path d="M341 434 c-14 -32 -12 -35 17 -27 15 3 22 13 22 29 0 32 -24 31 -39
-2z"/>
<path d="M1170 452 c-8 -3 -18 -9 -21 -14 -3 -5 -17 -4 -32 3 -14 6 -34 8 -44
4 -17 -7 -17 -8 2 -15 27 -11 93 -12 99 -1 3 4 17 6 32 3 19 -3 25 -1 22 8 -5
15 -35 21 -58 12z"/>
<path d="M2822 454 c4 -3 3 -15 -2 -25 -7 -12 -6 -20 1 -24 6 -4 8 -13 5 -21
-3 -8 1 -14 9 -14 8 0 15 8 15 17 0 9 7 25 17 35 9 10 14 20 12 22 -8 7 -64
17 -57 10z"/>
<path d="M1587 425 c-25 -24 -34 -26 -122 -26 -53 0 -93 -4 -90 -9 3 -4 -1
-11 -7 -13 -7 -3 8 -6 33 -6 32 -1 51 -7 64 -21 19 -21 50 -27 60 -11 3 5 1
12 -5 16 -13 8 -3 25 16 25 9 0 14 -11 14 -34 0 -32 3 -34 38 -39 20 -3 52 -9
70 -13 21 -4 32 -2 32 5 0 6 -13 11 -29 11 -31 0 -59 24 -42 35 6 3 19 1 30
-5 26 -14 41 -13 41 3 0 17 58 39 66 25 20 -31 153 23 153 62 -1 10 -2 11 -6
3 -2 -7 -12 -13 -21 -13 -15 0 -15 2 -2 10 23 15 1 12 -28 -4 -38 -21 -93 -37
-103 -30 -5 2 -23 -2 -40 -11 -17 -9 -51 -17 -74 -18 -24 -1 -43 -6 -42 -11 1
-6 -6 -12 -16 -14 -16 -3 -18 0 -12 20 4 12 18 38 32 56 29 39 27 40 -10 7z"/>
<path d="M2758 445 c-8 -9 2 -37 16 -47 15 -10 34 -10 21 0 -6 4 -15 17 -20
30 -6 13 -13 20 -17 17z"/>
<path d="M740 430 c0 -6 -10 -8 -25 -4 -16 4 -25 2 -25 -6 0 -6 5 -8 10 -5 6
3 10 1 10 -4 0 -15 12 -14 35 2 12 10 14 16 7 21 -7 4 -12 2 -12 -4z"/>
<path d="M1002 415 c2 -10 -5 -22 -14 -28 -13 -9 -21 -7 -35 9 -12 13 -32 20
-60 21 -48 2 -54 -3 -20 -17 15 -6 17 -9 6 -9 -27 -1 -30 -26 -4 -26 13 0 21
3 18 8 -2 4 3 7 12 7 9 0 14 4 10 9 -3 5 -1 12 4 15 5 4 12 -3 16 -14 8 -24
47 -27 70 -4 12 13 19 14 30 4 8 -7 15 -9 15 -4 0 5 -12 17 -26 27 -23 17 -25
17 -22 2z"/>
<path d="M1934 415 c3 -8 1 -15 -4 -15 -5 0 -7 -7 -4 -15 4 -8 10 -15 16 -15
5 0 7 4 3 9 -3 5 2 16 10 24 20 21 19 27 -6 27 -15 0 -19 -5 -15 -15z"/>
<path d="M2090 421 c0 -12 21 -19 43 -13 28 7 20 22 -13 22 -16 0 -30 -4 -30
-9z"/>
<path d="M2262 408 c3 -21 9 -23 57 -23 43 0 56 -4 65 -20 13 -24 27 -35 44
-35 18 0 15 27 -5 39 -10 6 -14 11 -8 11 5 0 -6 8 -25 19 -19 10 -38 17 -42
14 -5 -2 -8 0 -8 5 0 5 -18 9 -41 10 -36 2 -40 0 -37 -20z"/>
<path d="M2911 390 c-14 -48 -14 -60 2 -60 6 0 23 -12 37 -26 13 -15 26 -21
28 -15 2 6 -7 21 -21 33 -13 13 -27 33 -31 46 -6 19 -3 23 23 28 35 7 33 19
-3 26 -20 4 -25 -1 -35 -32z"/>
<path d="M1213 406 c-4 -6 -6 -18 -5 -27 1 -8 -7 -24 -18 -34 -20 -18 -21 -18
-36 1 -14 17 -14 16 0 -8 21 -35 20 -41 -3 -35 -13 3 -18 1 -14 -8 7 -20 -37
-59 -69 -60 -15 -1 -31 -4 -34 -8 -4 -4 -22 -7 -41 -7 -18 0 -33 -4 -33 -9 0
-5 -14 -12 -30 -16 -32 -7 -32 -25 -1 -25 10 0 29 -9 43 -19 18 -14 28 -17 39
-9 11 8 11 9 -3 4 -24 -7 -34 13 -15 32 10 9 37 16 66 18 61 2 77 10 60 30 -9
11 -8 15 4 20 9 3 22 2 28 -2 8 -5 10 -2 6 8 -12 33 70 68 88 38 4 -6 13 -5
25 3 31 18 24 22 -30 19 -55 -4 -63 6 -29 37 14 13 19 26 14 40 -4 13 -2 21 5
21 6 0 8 -4 5 -10 -3 -5 -1 -10 5 -10 7 0 10 -7 6 -15 -3 -9 0 -15 9 -15 8 0
15 5 15 10 0 6 7 10 15 10 18 0 19 7 2 24 -16 16 -65 18 -74 2z"/>
<path d="M2020 389 c0 -8 76 -25 100 -22 8 1 30 -2 48 -7 23 -6 40 -4 60 6 25
13 26 14 5 14 -13 0 -23 5 -23 11 0 5 -5 7 -11 3 -8 -4 -7 -9 2 -15 8 -5 10
-9 4 -10 -20 -3 -50 3 -55 11 -7 10 -130 19 -130 9z"/>
<path d="M2612 384 c-11 -12 -10 -15 5 -21 10 -4 24 -13 32 -21 9 -8 25 -12
41 -8 24 4 28 1 33 -24 7 -35 32 -32 61 7 19 25 19 26 1 39 -22 17 -59 18 -86
4 -15 -9 -24 -6 -45 15 -29 29 -25 28 -42 9z"/>
<path d="M181 381 c-11 -7 -9 -11 9 -21 25 -13 35 -8 27 15 -7 17 -16 19 -36
6z"/>
<path d="M336 375 c-3 -8 -13 -15 -23 -15 -18 0 -49 -37 -39 -47 3 -3 19 5 35
17 17 12 31 17 31 11 0 -6 10 -11 22 -11 12 0 30 -8 40 -17 18 -16 18 -16 12
0 -4 12 -1 17 11 17 12 0 16 -6 12 -20 -4 -16 0 -19 19 -18 13 1 24 8 24 14 0
12 -58 41 -72 36 -5 -1 -7 3 -5 9 1 6 -8 15 -20 19 -17 7 -21 6 -16 -6 3 -9
-1 -14 -12 -14 -12 0 -15 5 -10 20 7 23 0 27 -9 5z"/>
<path d="M1970 360 c0 -5 6 -10 13 -13 8 -3 6 -7 -6 -12 -11 -5 -24 -1 -36 9
-20 18 -36 21 -26 6 4 -6 1 -18 -6 -26 -6 -8 -8 -18 -4 -22 4 -4 10 -1 12 6 9
23 21 12 15 -13 -4 -14 -21 -34 -37 -45 -17 -11 -25 -20 -18 -20 6 0 15 5 18
10 3 6 20 10 38 10 22 0 28 3 20 11 -14 14 -4 61 13 55 7 -3 16 -1 19 4 3 5
37 8 75 7 41 -1 74 3 80 9 9 9 1 11 -32 7 -23 -2 -64 2 -90 10 -27 8 -48 11
-48 7z"/>
<path d="M2302 340 c28 -27 29 -35 6 -31 -5 0 -8 -4 -8 -9 0 -5 9 -10 20 -10
11 0 20 5 20 10 0 6 11 8 28 4 25 -7 26 -6 13 10 -8 9 -21 15 -30 14 -9 -2
-28 7 -41 20 -13 12 -27 22 -32 22 -4 0 6 -13 24 -30z"/>
<path d="M813 345 c4 -8 2 -17 -3 -20 -6 -4 -10 1 -10 9 0 9 -5 16 -11 16 -6
0 -8 -9 -4 -20 8 -24 2 -25 -20 -4 -9 9 -23 13 -33 9 -28 -11 33 -38 69 -30
22 5 29 12 29 31 0 13 -5 24 -11 24 -6 0 -9 -7 -6 -15z"/>
<path d="M2560 350 c0 -16 -22 -36 -50 -46 -25 -8 -32 -9 -57 -12 -7 -1 -13
-7 -13 -12 0 -7 6 -7 20 0 23 12 25 3 6 -22 -15 -21 -46 -24 -46 -6 0 7 -8 4
-19 -7 -20 -20 -19 -75 1 -75 5 0 7 4 4 8 -9 14 25 54 40 48 15 -6 54 26 54
44 0 15 26 12 40 -5 7 -8 21 -15 31 -15 11 0 19 -4 19 -9 0 -15 -28 -33 -40
-26 -6 4 -17 1 -25 -5 -8 -6 -18 -9 -24 -6 -16 10 -71 -6 -71 -20 0 -8 5 -14
10 -14 6 0 10 5 10 11 0 6 12 9 28 8 15 -2 33 0 40 4 6 5 16 5 22 2 5 -3 20 1
32 9 30 21 31 21 46 -13 7 -16 24 -41 38 -56 l25 -27 -28 4 c-15 3 -36 9 -45
13 -10 4 -18 3 -18 -3 0 -13 47 -29 90 -31 19 -1 44 -4 55 -8 20 -6 20 -5 1
16 -11 12 -26 19 -33 17 -7 -3 -13 -2 -13 2 0 4 -11 19 -25 34 -20 22 -21 27
-9 32 16 6 10 26 -7 26 -6 0 -7 -4 -4 -10 3 -5 -1 -10 -9 -10 -9 0 -16 9 -16
20 0 11 5 20 11 20 6 0 -4 14 -22 31 -24 22 -39 29 -56 24 -29 -7 -30 5 -1 29
18 15 25 17 41 7 31 -20 29 -6 -3 18 -17 12 -30 17 -30 11z"/>
<path d="M556 323 c12 -49 19 -53 20 -13 1 28 -3 40 -12 40 -11 0 -13 -8 -8
-27z"/>
<path d="M1264 338 c-5 -7 -1 -9 13 -6 12 3 34 -3 50 -13 42 -28 64 -23 28 6
-32 26 -79 33 -91 13z"/>
<path d="M2222 339 c2 -7 19 -13 38 -15 l35 -3 -25 14 c-30 17 -53 19 -48 4z"/>
<path d="M843 311 c-10 -15 -9 -20 2 -25 9 -3 15 1 15 9 0 18 10 19 33 1 25
-19 22 -47 -5 -45 -46 4 -88 -1 -88 -11 0 -14 102 -8 118 7 6 6 12 17 12 23 0
6 6 17 12 24 10 11 18 11 45 -1 21 -8 33 -9 33 -3 0 17 -52 31 -91 25 -22 -4
-40 -2 -44 4 -10 17 -29 13 -42 -8z"/>
<path d="M1040 315 c9 -9 24 -12 38 -8 17 4 20 8 11 14 -8 5 -17 3 -21 -4 -6
-9 -8 -9 -8 1 0 6 -8 12 -17 12 -15 0 -16 -2 -3 -15z"/>
<path d="M2813 310 c1 -11 6 -18 12 -15 5 3 18 8 28 11 27 10 20 24 -12 24
-24 0 -29 -4 -28 -20z"/>
<path d="M50 301 c0 -5 22 -8 49 -8 27 1 44 5 38 9 -17 11 -87 10 -87 -1z"/>
<path d="M1488 291 c-10 -10 -18 -23 -18 -29 0 -6 -8 -12 -17 -14 -15 -3 -15
-4 1 -20 10 -10 25 -18 34 -18 11 0 13 3 5 8 -11 7 -6 62 6 62 4 0 17 -7 29
-16 34 -24 40 -8 8 21 -15 14 -28 25 -29 24 -1 0 -10 -8 -19 -18z"/>
<path d="M1718 286 c-4 -21 -1 -24 21 -23 21 2 26 -3 27 -23 1 -14 -3 -28 -9
-32 -6 -4 -8 -10 -5 -13 11 -11 28 5 28 26 0 16 5 19 20 14 11 -4 20 -2 20 4
0 6 -8 11 -19 11 -11 0 -21 9 -24 21 -5 17 -2 20 14 16 10 -3 17 -1 13 4 -8
13 -41 11 -50 -3 -5 -8 -11 -6 -19 6 -11 15 -13 14 -17 -8z"/>
<path d="M231 287 c-7 -10 -20 -17 -27 -17 -8 0 -14 -5 -14 -10 0 -6 11 -8 28
-4 34 9 34 9 30 30 -3 16 -4 16 -17 1z"/>
<path d="M314 283 c3 -16 54 -38 65 -27 7 7 -40 43 -56 44 -6 0 -10 -8 -9 -17z"/>
<path d="M2068 293 c-27 -7 -21 -23 8 -23 14 0 23 -4 19 -10 -10 -15 21 -23
42 -11 15 9 15 11 2 9 -9 -2 -25 6 -35 18 -11 12 -27 19 -36 17z"/>
<path d="M2868 278 c-2 -15 -11 -24 -25 -26 -26 -4 -32 -22 -7 -22 29 0 54 21
54 45 0 31 -17 33 -22 3z"/>
<path d="M2219 286 c0 0 -2 -11 -5 -23 -5 -27 20 -32 30 -7 4 9 13 14 22 10 8
-3 13 -2 10 3 -5 7 -54 22 -57 17z"/>
<path d="M1366 266 c4 -12 0 -16 -15 -16 -12 0 -31 -11 -43 -25 -21 -25 -45
-35 -32 -14 7 12 -15 31 -28 23 -13 -9 -9 -23 10 -33 25 -13 88 9 108 37 11
16 21 21 40 16 14 -4 24 -2 24 5 0 6 -6 11 -12 11 -7 0 -23 3 -36 6 -18 5 -21
3 -16 -10z"/>
<path d="M1620 260 c0 -11 5 -20 12 -20 6 0 3 -7 -8 -15 -10 -8 -14 -15 -8
-15 19 0 33 25 27 48 -7 27 -23 29 -23 2z"/>
<path d="M37 263 c-11 -10 -8 -53 4 -53 5 0 7 5 4 10 -3 6 -1 10 4 10 6 0 11
-15 11 -34 0 -18 7 -39 15 -46 21 -18 32 -4 17 21 -7 11 -10 24 -7 28 2 5 -2
14 -10 21 -8 7 -15 21 -15 31 0 19 -11 25 -23 12z"/>
<path d="M110 255 c14 -17 70 -21 70 -5 0 6 -10 8 -24 4 -13 -3 -27 -1 -30 5
-4 6 -12 11 -18 11 -7 0 -6 -6 2 -15z"/>
<path d="M402 258 c3 -7 20 -16 39 -21 19 -5 40 -13 47 -19 9 -8 12 -6 12 5 0
17 -54 42 -69 32 -6 -3 -11 -1 -11 4 0 6 -5 11 -11 11 -6 0 -9 -5 -7 -12z"/>
<path d="M753 258 c3 -9 -1 -25 -9 -36 -15 -22 -6 -36 18 -27 18 7 17 67 -1
73 -9 3 -12 0 -8 -10z"/>
<path d="M1203 263 c-27 -5 -30 -18 -7 -27 8 -3 22 0 30 8 15 16 18 27 7 25
-5 -1 -18 -4 -30 -6z"/>
<path d="M2680 255 c0 -31 14 -45 38 -38 26 6 30 33 4 33 -10 0 -23 5 -30 12
-9 9 -12 8 -12 -7z"/>
<path d="M2183 247 c-4 -8 -24 -22 -43 -30 -28 -12 -31 -16 -13 -16 24 -1 82
43 71 54 -3 4 -10 0 -15 -8z"/>
<path d="M226 242 c-7 -12 18 -40 39 -43 29 -4 67 11 62 24 -2 7 -17 11 -34 9
-17 -2 -34 1 -38 7 -7 13 -22 14 -29 3z"/>
<path d="M1510 243 c0 -16 58 -32 69 -19 6 8 3 11 -12 12 -12 0 -30 4 -39 8
-10 5 -18 4 -18 -1z"/>
<path d="M2250 235 c0 -12 -34 -29 -52 -26 -5 1 -8 -3 -8 -9 0 -11 35 -8 46 3
4 4 15 7 25 7 25 0 32 27 8 33 -11 3 -19 0 -19 -8z"/>
<path d="M353 232 c-9 -6 -8 -12 6 -24 10 -9 21 -22 23 -29 3 -8 9 -11 13 -7
7 7 -15 68 -25 68 -3 0 -11 -4 -17 -8z"/>
<path d="M1688 223 c-10 -2 -18 -9 -18 -15 0 -6 10 -8 23 -4 12 3 25 6 30 6 4
0 7 5 7 10 0 10 -12 11 -42 3z"/>
<path d="M633 197 c-49 -26 -73 -64 -45 -73 9 -3 27 -10 40 -15 26 -10 28 -4
7 17 -8 9 -15 23 -15 32 0 17 41 42 67 42 7 0 13 5 13 10 0 15 -21 11 -67 -13z"/>
<path d="M818 200 c-13 -15 -14 -22 -4 -35 11 -16 14 -16 28 -1 9 9 14 24 11
36 -6 24 -13 24 -35 0z"/>
<path d="M1966 204 c-3 -9 -6 -17 -6 -19 0 -6 48 -17 85 -19 22 -1 45 -4 50
-8 14 -8 75 -2 86 9 5 5 -5 7 -26 5 -19 -2 -43 -1 -52 3 -10 5 -26 7 -36 6
-21 -3 -77 20 -77 31 0 14 -18 8 -24 -8z"/>
<path d="M2277 200 c-18 -18 -18 -18 7 -16 33 4 40 10 24 23 -9 8 -18 5 -31
-7z"/>
<path d="M2790 210 c0 -15 22 -24 66 -25 31 -1 40 3 37 13 -4 8 -14 11 -29 8
-12 -3 -34 -2 -48 4 -15 5 -26 6 -26 0z"/>
<path d="M1170 200 c0 -12 40 -34 48 -26 3 4 -3 13 -14 21 -22 17 -34 19 -34
5z"/>
<path d="M1510 202 c0 -21 27 -62 48 -72 35 -15 44 -13 32 10 -6 11 -20 20
-31 20 -12 0 -23 10 -29 25 -9 24 -20 33 -20 17z"/>
<path d="M2730 196 c0 -8 14 -19 30 -25 36 -12 37 -9 8 19 -25 23 -38 26 -38
6z"/>
<path d="M1797 180 c3 -11 14 -20 24 -20 10 0 21 -5 24 -10 9 -14 35 7 35 27
0 12 -3 13 -15 3 -16 -13 -59 -4 -50 11 4 5 0 9 -8 9 -10 0 -13 -7 -10 -20z"/>
<path d="M1310 155 c-22 -24 -22 -26 -6 -44 22 -25 59 -31 82 -14 16 12 13 13
-24 13 -45 0 -53 12 -26 41 24 27 -1 31 -26 4z"/>
<path d="M1681 154 c-13 -13 -21 -27 -18 -31 4 -3 7 0 7 7 0 7 3 10 7 7 7 -8
43 21 43 35 0 13 -14 7 -39 -18z"/>
<path d="M2947 166 c-8 -9 -17 -12 -19 -6 -2 6 -9 6 -18 0 -22 -13 -4 -25 41
-25 l39 0 -1 -47 c-2 -41 -5 -48 -23 -49 -12 -1 -34 -2 -51 -4 -16 -1 -41 6
-55 14 -17 11 -22 12 -16 3 4 -8 22 -22 38 -32 26 -16 33 -16 56 -4 36 18 50
18 55 -3 3 -10 5 22 6 70 1 62 -2 86 -10 81 -6 -3 -15 -1 -19 5 -5 9 -11 9
-23 -3z"/>
<path d="M660 160 c0 -10 52 -40 71 -40 7 0 0 11 -15 25 -27 25 -56 33 -56 15z"/>
<path d="M2456 157 c-17 -13 -18 -14 -2 -20 10 -4 14 -12 10 -19 -4 -7 -3 -9
1 -5 9 8 19 57 12 57 -2 0 -11 -6 -21 -13z"/>
<path d="M2810 160 c0 -5 4 -10 9 -10 5 0 7 -8 4 -19 -4 -15 3 -19 34 -24 52
-9 63 -9 63 3 0 6 -9 10 -19 10 -29 0 -51 11 -51 25 0 7 -7 16 -16 19 -21 8
-24 8 -24 -4z"/>
<path d="M390 141 c0 -11 -7 -24 -15 -29 -13 -7 -11 -12 10 -30 21 -18 27 -20
31 -8 3 8 3 20 -1 26 -4 6 -2 17 5 25 9 11 7 16 -9 25 -18 9 -21 8 -21 -9z"/>
<path d="M504 145 c-4 -9 -19 -15 -35 -15 -16 0 -29 -4 -29 -9 0 -15 41 -24
53 -12 6 6 24 11 41 11 28 0 29 0 11 20 -22 24 -34 25 -41 5z"/>
<path d="M264 139 c-8 -14 22 -39 47 -39 16 0 46 27 38 34 -13 11 -78 15 -85
5z"/>
<path d="M1946 142 c-3 -3 -16 -6 -28 -7 -12 -1 -24 -7 -26 -13 -5 -15 54 -16
63 -1 5 7 13 5 25 -6 11 -10 20 -12 24 -6 7 10 -49 42 -58 33z"/>
<path d="M2277 136 c-7 -19 -3 -20 23 -6 13 7 19 6 24 -5 3 -8 17 -15 31 -15
14 0 25 -4 25 -9 0 -5 12 -12 28 -15 15 -4 35 -9 44 -12 13 -4 16 -1 12 10 -3
9 -15 16 -26 16 -11 0 -32 8 -46 19 -39 27 -108 37 -115 17z"/>
<path d="M142 129 c5 -17 48 -25 48 -10 0 6 -4 11 -9 11 -5 0 -17 3 -27 7 -12
4 -15 2 -12 -8z"/>
<path d="M872 127 c-6 -6 -14 -26 -18 -42 l-7 -30 32 29 c17 17 31 36 31 43 0
17 -24 17 -38 0z"/>
<path d="M1114 125 c-7 -18 -34 -20 -34 -3 0 6 -2 9 -5 6 -3 -3 -3 -11 0 -19
7 -18 107 -17 113 1 3 9 -2 11 -17 7 -11 -3 -21 -2 -21 3 0 15 -31 20 -36 5z"/>
<path d="M1410 110 c0 -5 7 -10 16 -10 12 0 15 -7 12 -30 -4 -24 -1 -30 14
-30 23 0 25 42 2 64 -17 18 -44 21 -44 6z"/>
<path d="M2065 101 c-8 -13 30 -51 51 -51 7 0 21 -3 31 -6 13 -4 11 0 -7 15
-14 11 -30 21 -37 21 -7 0 -16 7 -21 16 -7 12 -11 13 -17 5z"/>
<path d="M22 89 c-22 -8 -22 -10 -6 -34 16 -25 34 -33 34 -16 0 5 -6 12 -12
15 -10 3 -8 9 5 19 22 18 10 28 -21 16z"/>
<path d="M135 89 c-9 -13 -6 -15 33 -24 35 -7 41 1 15 21 -22 16 -40 18 -48 3z"/>
<path d="M932 79 c-11 -17 -9 -19 18 -19 34 0 38 10 12 27 -15 9 -21 7 -30 -8z"/>
<path d="M590 73 c0 -5 5 -14 12 -21 9 -9 9 -12 -2 -13 -48 -4 -61 -7 -67 -13
-13 -13 5 -16 32 -6 15 6 42 9 61 7 18 -3 31 -1 29 4 -3 4 4 14 15 22 18 13
18 13 -13 13 -18 0 -40 4 -49 8 -10 5 -18 4 -18 -1z"/>
<path d="M725 69 l-30 -6 28 -8 c28 -8 42 -3 36 12 -2 5 -17 6 -34 2z"/>
<path d="M1610 70 c0 -5 16 -17 36 -26 26 -13 38 -14 47 -5 6 6 22 11 35 11
13 0 20 4 17 10 -4 6 -23 7 -44 4 -24 -4 -41 -2 -45 5 -9 13 -46 15 -46 1z"/>
<path d="M2259 62 l-34 -16 55 -6 c61 -8 65 -7 57 13 -8 22 -41 26 -78 9z"/>
<path d="M2684 62 c-6 -4 -14 -19 -18 -34 -5 -24 -3 -28 15 -28 12 0 19 3 16
7 -4 3 0 11 8 17 13 9 13 14 3 28 -7 10 -18 14 -24 10z"/>
<path d="M984 49 c-8 -14 11 -33 25 -25 16 10 13 36 -3 36 -8 0 -18 -5 -22
-11z"/>
<path d="M60 37 c0 -8 11 -19 25 -25 25 -12 30 -6 19 22 -7 19 -44 21 -44 3z"/>
<path d="M216 16 c4 -11 19 -16 50 -16 47 0 62 14 17 16 -16 1 -38 5 -51 9
-18 6 -21 4 -16 -9z"/>
<path d="M2495 20 c-4 -6 10 -10 34 -10 23 0 41 5 41 10 0 6 -15 10 -34 10
-19 0 -38 -4 -41 -10z"/>
<path d="M2768 24 c6 -3 10 -10 6 -15 -3 -5 12 -9 32 -9 45 0 35 15 -16 24
-19 3 -29 3 -22 0z"/>
</g>
</svg>
